<svg xmlns="http://www.w3.org/2000/svg" viewBox="0 0 512 512"><title>Asset 11x</title><g id="Layer_2" data-name="Layer 2"><g id="Layer_1-2" data-name="Layer 1"><path d="M78.1,203.78c-1.47-10.33-2-21.25,1.76-30.9,8.22-21.08,32.36-27.78,50.58-39.73,18.8-12.32,32.59-31.85,50.94-44.91,19.4-13.81,42.71-19.59,65.47-25,30.41-7.21,64.4-13.63,91,3.74,15,9.8,25.49,26.27,31.1,44.05s6.68,36.87,5.88,55.61c-.59,13.74-2.14,27.74,1,41.1,3.39,14.54,12,27,18.91,40s12.44,28.29,8.85,42.78c-2.61,10.56-9.73,19.2-17.47,26.35-26.28,24.29-61,35.58-89.07,57.5-22.13,17.3-39.46,40.71-60.84,59-14.55,12.47-31.92,22.81-50.58,22.75-25-.09-47.47-19.66-58.16-43.83S116,360.24,119,333.71c2.53-22.51,4.52-44.17-9.29-62.59C93.81,249.91,82,231.52,78.1,203.78Z" fill="#e8f3f7"/><polygon points="160.96 400.74 152.01 401.15 158.07 421 166.75 419.62 160.96 400.74" fill="#f5c08f"/><path d="M249.5,329.46a5,5,0,0,0,.3,1.72l12.26,28.27s-35.52,26.08-109.58,2l22.73-45.79s-26.73,19-38,1.47c-.73-3.1-5.09-10-2.91-19.93l0-.28a71.39,71.39,0,0,1,40.21-72.64q2.87-1.36,6-2.72l44.13-5.15s9.16,5.26,19.31,11.88q2,1.32,4.07,2.7a57.91,57.91,0,0,1,21.87,27.74,58.71,58.71,0,0,1,3.19,12.88c1.69,13.1,2.22,26.2,1.61,28.61-.51,2-7.55,9.73-13.4,15.92-4.28,4.53-7.92,8.22-7.92,8.22A5.38,5.38,0,0,0,249.5,329.46Z" fill="#fff"/><path d="M160.33,363.38c14.94,13.68,33.37,23,52.47,29.47s39,10.29,58.75,14.07a66.94,66.94,0,0,0-10.69,21.9c-15.54-5.16-32.27-5.15-48.25-8.68a185.67,185.67,0,0,1-20.8-6.19c-31.61-11-63.62-25.83-84-52.63-2.73-3.58-5.28-7.47-6.28-11.88-1.71-7.52,1.62-15.78,7.62-20.51s14.31-6,21.67-4.07c11,2.95,20.8,5.54,31.59,9.26a134.53,134.53,0,0,0,67.19,5.21C243,336.93,256.2,332.4,267.72,325c3.27-2.1,6.61-2.49,10.3-3.69a35.52,35.52,0,0,1,12-1.58c5,0,10-1.64,15-1.51,2.88.08,5.87.19,8.46,1.48a16.44,16.44,0,0,1,5.42,4.91,37.76,37.76,0,0,1,8,22.54,30.79,30.79,0,0,1-8.82,22,52.1,52.1,0,0,1-10.46,7.38,262,262,0,0,1-33.25,16.88c-12.33,5-25.2,8.54-38.08,11.85q-38.11,9.79-76.79,17.06" fill="#7b6bd1"/><path d="M286.82,338.66c-5.09,9.27-15.57,14.31-25.88,16.67s-21,2.65-31.24,5.47-20.34,8.88-24.17,18.74" fill="none" stroke="#574b9b" stroke-miterlimit="10"/><path d="M278,405c4.14-.57,8.08,1.53,12.12,2.49,4.31,1,9.35,1,12.49,3.73,3,2.63,3,6.8,2.59,10.48-.27,2.16-.72,4.44-2.38,6.05-2.12,2.06-5.58,2.47-8.73,2.66a162.28,162.28,0,0,1-34.69-1.66c-.28-3.07,2-5.79,3.92-8.38C267.52,414.57,268.79,406.22,278,405Z" fill="#3a2739"/><path d="M144.45,399.09c-5.45.69-10.94,2.62-14.79,6.54s-5.7,10.09-3.5,15.13a5.38,5.38,0,0,0,2.11,2.64,6.64,6.64,0,0,0,1.9.63,69.67,69.67,0,0,0,28,.27,3,3,0,0,0,2.87-3.8,53.5,53.5,0,0,0-3.79-17.86c-1.51-3.78-1.47-5-5.38-4.56C149.39,398.32,146.91,398.79,144.45,399.09Z" fill="#3a2739"/><path d="M220.16,300.7c6.43,4.35,9.36,13,15.6,17.62a34.24,34.24,0,0,0,4.43,2.66l9.33,5a6.86,6.86,0,0,0,2.59,1,4.75,4.75,0,0,0,4-2.14,9.7,9.7,0,0,0,2-4.64c.5-6.15-2.57-12-6.23-16.77a21.16,21.16,0,0,0-3.58-3.83c-2.13-1.68-4.7-2.59-7.16-3.63a65.83,65.83,0,0,1-20.46-13.71l-18.35-2.73L209,293.38Z" fill="#f6c1b1"/><path d="M235.56,281.62a40.21,40.21,0,0,0,2.58-19.23c-.57-5.09-2.09-1.16-.37-6" fill="none" stroke="#d7d7ff" stroke-linecap="round" stroke-linejoin="round" opacity="0.81"/><path d="M166.29,257c-2,13.27,5.64,12,6.48,25.29" fill="none" stroke="#d7d7ff" stroke-linecap="round" stroke-linejoin="round" opacity="0.81"/><path d="M156.64,356.49a463.09,463.09,0,0,0,74.43,35.88c.9.34,1.3-1.11.4-1.45a460.89,460.89,0,0,1-74.07-35.73.75.75,0,0,0-.76,1.3Z" fill="#574b9b"/><path d="M223.65,221.19l-3.74-21.35s-14.33,15.19-32.43.45l-7,22.17S207,261.34,223.65,221.19Z" fill="#f6c1b1"/><path d="M188.49,209.21s2.42,12.08,34.7,11.3l-3.81-13.06S205,218.83,188.49,209.21Z" fill="#e59785"/><path d="M188.4,207.93s-10.41,32.3-9,37.93-10.6-.24-13.42-16.6-15.43-71.66,3.26-87.72c16.37-14.07,33.5-11,37.5-10.08a13.9,13.9,0,0,0,1.68.31c3.2.37,11.05,0,21.82,10.24,10.18,9.68,8.46,42.4,5.87,52.08a16.2,16.2,0,0,0-.23,7.34c1.81,9.08,5.77,32,1.28,39.47a20.89,20.89,0,0,0-1.61,3.15c-.88,2.23-3,4.92-7.29-2.27a15.39,15.39,0,0,1-1.74-4.34c-1.44-6-7-25.19-7.22-30.91Z" fill="#3a2739"/><path d="M175.08,171.22l.49-5.76c2.72,5.14,11.68,13.55,44.45,0,0,0,7.39,15.82,3.2,33-2,8.35-6.58,14.47-14.54,16.22-11.43,2.51-28.55-.63-33.17-38.86C175.33,174.23,175.13,172.73,175.08,171.22Z" fill="#f6c1b1"/><path d="M177,276.73l8.22,26.8a2.09,2.09,0,0,0,2,1.48h21.61a2.09,2.09,0,0,0,2.08-2.33l-3-26.8a2.09,2.09,0,0,0-2.08-1.86H179A2.09,2.09,0,0,0,177,276.73Z" fill="#a6a6ff"/><path d="M178.78,307.71" fill="#f5c08f"/><path d="M141.49,305.92a3.47,3.47,0,0,0-2.83,1.9,6.18,6.18,0,0,0-.57,3.47,11.54,11.54,0,0,0,5.15,8.36,14.57,14.57,0,0,0,9.71,2.18,50.79,50.79,0,0,0,7.67-1.93,73.19,73.19,0,0,0,7.35-2.42c3.93-1.56,8.24-3.3,11.29-6.45a8,8,0,0,1,2.83-2.32,6.34,6.34,0,0,1,2.23-.22l4.71.1c2.35.05,5.07-.07,6.48-1.95a1.73,1.73,0,0,0,.41-1.1,1.6,1.6,0,0,0-1.62-1.3,6.5,6.5,0,0,0-2.21.53,10.92,10.92,0,0,1-8.33-.68c4.08-.14,7.83-1,11.91-1.13a6.32,6.32,0,0,0,4.18-1.16c.23-.16.07-.59-.1-.81a1,1,0,0,0-.63-.37c-3.92-.68-7.88-.06-11.87.34-1.12.11-2.59.29-2.89-.8.33-.47,1.23-.3,1.79-.26,4.35.26,6.15-.36,10.25-1.07.48-.08,1.1-.35,1-.82a.78.78,0,0,0-.54-.5c-4.35-1.43-6.92-1.55-11.58-1.27-.55,0-1.11.26-1.61,0s-.78-1-.35-1.32a1.2,1.2,0,0,1,.78-.17l5.12.1c1.48,0,3.06,0,4.18-1.13.5-.52.53-.76,0-1.26a3.6,3.6,0,0,0-1.81-.79,13.55,13.55,0,0,0-4.25-.16,8.22,8.22,0,0,1-2.79-.48c-.92-.21-3-1.73-3.15-2.65-.09-.49.54-1,.23-1.41a1,1,0,0,0-.95-.28c-.67.15-.15-.06-.78.3-2.67,1.52-3.65,4.35-5.54,6.48-2.46,2.77-6.2,4.05-9.86,4.63s-7.4.56-11,1.29a27.47,27.47,0,0,0-13.86,7.4" fill="#f6c1b1"/><path d="M198.43,272.19s25.08-43,103.91-45.15" fill="none" stroke="#7b6bd1" stroke-miterlimit="10" stroke-width="2" stroke-dasharray="8"/><path d="M317,282.66" fill="#fff" stroke="#323a54" stroke-linecap="round" stroke-linejoin="round" stroke-width="2"/><path d="M317,282.66H298a2.38,2.38,0,0,1-2.38-2.38V161a2.38,2.38,0,0,1,2.38-2.38h84.89a2.38,2.38,0,0,1,2.38,2.38V280.28a2.38,2.38,0,0,1-2.38,2.38h-49" fill="#b8b8ff"/><g opacity="0.82"><polyline points="306.7 232.05 306.7 167.41 374.69 167.41 374.69 257.6 331.22 257.6" fill="#fff"/></g><rect x="328.03" y="161.4" width="24.92" height="7.33" rx="0.85" ry="0.85" fill="#a6a6ff"/><path d="M336.28,162.84v-3.71a4.21,4.21,0,0,1,4.21-4.21h0a4.21,4.21,0,0,1,4.21,4.21v3.71" fill="#b8b8ff"/><g opacity="0.5"><polygon points="306.7 232.1 331.29 233.09 331.23 257.59 306.7 232.1" fill="#e5e5e5"/></g><path d="M350,197.23H315.26a1.07,1.07,0,1,1,0-2.14H350a1.07,1.07,0,1,1,0,2.14Z" fill="#b376a6"/><path d="M363.89,197.12h-6.75a1.07,1.07,0,0,1,0-2.14h6.75a1.07,1.07,0,0,1,0,2.14Z" fill="#b376a6"/><path d="M350,207.17H315.26a1.07,1.07,0,0,1,0-2.14H350a1.07,1.07,0,0,1,0,2.14Z" fill="#b376a6"/><path d="M363.89,207.07h-6.75a1.07,1.07,0,0,1,0-2.14h6.75a1.07,1.07,0,1,1,0,2.14Z" fill="#b376a6"/><path d="M350,216.76H315.26a1.07,1.07,0,1,1,0-2.14H350a1.07,1.07,0,1,1,0,2.14Z" fill="#b376a6"/><path d="M363.89,216.66h-6.75a1.07,1.07,0,0,1,0-2.14h6.75a1.07,1.07,0,1,1,0,2.14Z" fill="#b376a6"/><path d="M363.89,227H351.13a1.07,1.07,0,1,1,0-2.14h12.76a1.07,1.07,0,1,1,0,2.14Z" fill="#b376a6"/><path d="M337,188.94H324.2a1.07,1.07,0,1,1,0-2.14H337a1.07,1.07,0,1,1,0,2.14Z" fill="#b376a6"/><path d="M316.29,191.4a4.26,4.26,0,0,1-2.77-1.22l.9-1.27a3.39,3.39,0,0,0,1.87,1v-1.85c-1.21-.31-2.52-.75-2.52-2.35a2.5,2.5,0,0,1,2.52-2.36v-1.09h1.12v1.12a4.15,4.15,0,0,1,2.38,1l-.93,1.22a3.29,3.29,0,0,0-1.46-.76v1.66c1.21.31,2.56.77,2.56,2.37,0,1.3-.85,2.3-2.56,2.48v1.07h-1.12Zm0-5.15v-1.43c-.53.07-.82.36-.82.76S315.8,186.1,316.29,186.24Zm1.12,2.1v1.57c.58-.12.87-.46.87-.82S317.91,188.51,317.41,188.34Z" fill="#b376a6"/><path d="M214.36,167.05a18.79,18.79,0,0,1-11.74,5.32,16.92,16.92,0,0,0,15.9-7.89" fill="#3a2739"/><polygon points="431.63 117.84 407.86 125.07 371.96 106.58 431.63 117.84" fill="#0056ec"/><polygon points="371.96 106.58 401.21 164.26 403.63 128.45 371.96 106.58" fill="#0056ec"/><polygon points="424.54 150.66 412.69 144.12 416.77 137.54 373.63 107.72 419.85 131.15 424.54 150.66" fill="#b0caff" opacity="0.43" style="isolation:isolate"/><polygon points="416.77 137.54 424.76 150.77 412.37 144.64 416.77 137.54" fill="#0056ec"/><polygon points="403.63 128.45 401.21 164.26 416.77 137.54 403.63 128.45" fill="#b0caff" opacity="0.43" style="isolation:isolate"/><path d="M407.86,125.07l23.77-7.23s-10.58,13.92-11.4,13.5Z" fill="#eef7fe"/><path d="M383.86,233s78.64-50.72,40.9-82.26" fill="none" stroke="#7b6bd1" stroke-miterlimit="10" stroke-width="2" stroke-dasharray="8"/><rect width="512" height="512" fill="none"/><rect width="512" height="512" fill="none"/></g></g></svg>